<?xml version="1.0" encoding="iso-8859-1"?>
<!-- Uploaded to: SVG Repo, www.svgrepo.com, Generator: SVG Repo Mixer Tools -->
<svg height="800px" width="800px" version="1.1" id="Layer_1" xmlns="http://www.w3.org/2000/svg" xmlns:xlink="http://www.w3.org/1999/xlink" 
	 viewBox="0 0 512.001 512.001" xml:space="preserve">
<path id="SVGCleanerId_0" style="fill:#FD4DD7;" d="M352.706,136.898h-194.62c-6.005,0-10.874,4.869-10.874,10.874v28.793
	c0,6.005,4.869,10.874,10.874,10.874h194.62c6.005,0,10.874-4.869,10.874-10.874v-28.793
	C363.58,141.767,358.711,136.898,352.706,136.898z"/>
<g>
	<path id="SVGCleanerId_0_1_" style="fill:#FD4DD7;" d="M352.706,136.898h-194.62c-6.005,0-10.874,4.869-10.874,10.874v28.793
		c0,6.005,4.869,10.874,10.874,10.874h194.62c6.005,0,10.874-4.869,10.874-10.874v-28.793
		C363.58,141.767,358.711,136.898,352.706,136.898z"/>
</g>
<path style="fill:#E846AA;" d="M352.973,136.898h-33.864c6.005,0,10.874,4.869,10.874,10.874v28.793
	c0,6.005-4.869,10.874-10.874,10.874h33.864c6.005,0,10.874-4.869,10.874-10.874v-28.793
	C363.847,141.767,358.978,136.898,352.973,136.898z"/>
<path style="fill:#FFDB6C;" d="M351.397,187.433c12.799,18.665,20.288,41.258,20.288,65.6c0,64.14-51.996,116.134-116.134,116.134
	s-116.134-51.994-116.134-116.134c0-24.052,7.761-47.058,20.283-65.593"/>
<path style="fill:#FFB966;" d="M351.397,187.433l-191.698,0.007c-4.624,6.844-8.593,14.302-11.768,22.193l156.666-0.006
	c17.201-0.001,32.617,10.789,38.33,27.012c4.251,12.073,6.564,25.059,6.564,38.586c0,26.411-8.822,50.758-23.672,70.269
	c27.871-21.214,45.867-54.734,45.867-92.462C371.686,228.691,364.196,206.098,351.397,187.433z"/>
<polyline style="fill:#FFDB6C;" points="272.513,503.577 272.513,433.285 238.523,433.285 238.523,503.577 "/>
<path style="fill:#FC4C59;" d="M255.814,335.474h-0.525c-19.622,0-35.53-15.907-35.53-35.53l0,0h71.584l0,0
	C291.343,319.567,275.436,335.474,255.814,335.474z"/>
<path style="fill:#E83A64;" d="M219.759,299.944L219.759,299.944c0,4.066,0.692,7.968,1.95,11.605h67.687
	c1.257-3.638,1.95-7.54,1.95-11.605l0,0H219.759z"/>
<path style="fill:#FFB966;" d="M238.523,454.314c5.352,1.79,11.073,2.775,17.028,2.775c5.93,0,11.628-0.976,16.96-2.753v-21.052
	h-33.988V454.314z"/>
<circle style="fill:#FD4DD7;" cx="255.549" cy="403.431" r="34.262"/>
<path style="fill:#E846AA;" d="M255.517,381.335c16.845,0,30.84,12.16,33.713,28.178c0.354-1.976,0.549-4.006,0.549-6.084
	c0-18.923-15.34-34.262-34.262-34.262s-34.262,15.34-34.262,34.262c0,2.078,0.195,4.108,0.549,6.084
	C224.677,393.494,238.673,381.335,255.517,381.335z"/>
<g>
	<circle style="fill:#F2F2F2;" cx="208.332" cy="239.913" r="21.384"/>
	<circle style="fill:#F2F2F2;" cx="302.462" cy="239.913" r="21.384"/>
</g>
<g>
	<circle style="fill:#7C54B8;" cx="208.478" cy="239.913" r="8.424"/>
	<circle style="fill:#7C54B8;" cx="302.62" cy="239.913" r="8.424"/>
</g>
<path style="fill:#674799;" d="M165.769,136.898h89.893v-20.393c0-58.839-47.049-107.574-105.886-108.076
	C107.47,8.069,70.791,32.308,53.171,67.703c-3.569,7.171,4.742,14.565,11.435,10.163c11.12-7.313,24.429-11.568,38.734-11.568
	C142.331,66.298,165.769,97.907,165.769,136.898z"/>
<path style="fill:#7C54B8;" d="M165.769,136.898h45.126c-6.455-52.706-22.959-84.446-77.591-94.775
	c-30.722-5.808-59.446,12.912-79.144,34.088c2.382,2.865,6.671,4.135,10.446,1.653c11.119-7.313,24.428-11.568,38.734-11.568
	C142.331,66.298,165.769,97.907,165.769,136.898z"/>
<path style="fill:#3CC247;" d="M345.096,136.898H255.44v-20.393c0-58.839,47.049-107.574,105.886-108.076
	c42.306-0.361,78.986,23.878,96.605,59.272c3.569,7.171-4.742,14.565-11.435,10.163c-11.12-7.313-24.429-11.568-38.734-11.568
	C368.771,66.298,345.096,97.907,345.096,136.898z"/>
<path style="fill:#2DA85F;" d="M371.815,38.754c-52.705,12.949-73.242,43.852-78.182,98.144h51.463
	c0-38.992,23.675-70.6,62.666-70.6c14.304,0,27.613,4.256,38.734,11.568c3,1.973,6.323,1.572,8.757-0.112
	C435.482,53.721,404.461,30.734,371.815,38.754z"/>
<g>
	<circle style="fill:#FFDB6C;" cx="43.602" cy="89.503" r="16.847"/>
	<circle style="fill:#FFDB6C;" cx="468.405" cy="88.613" r="16.847"/>
</g>
<g>
	<path style="fill:#FFB966;" d="M43.602,72.662c-0.864,0-1.706,0.085-2.536,0.211c5.876,2.63,9.977,8.518,9.977,15.372
		c0,8.44-6.213,15.411-14.311,16.636c2.1,0.94,4.421,1.475,6.87,1.475c9.304,0,16.847-7.543,16.847-16.847
		C60.449,80.205,52.906,72.662,43.602,72.662z"/>
	<path style="fill:#FFB966;" d="M468.402,71.766c-0.864,0-1.706,0.085-2.536,0.211c5.876,2.63,9.977,8.518,9.977,15.372
		c0,8.44-6.213,15.411-14.311,16.636c2.1,0.94,4.421,1.475,6.87,1.475c9.304,0,16.847-7.543,16.847-16.847
		C485.249,79.307,477.706,71.766,468.402,71.766z"/>
</g>
<g>
	<circle style="fill:#FFDB6C;" cx="187.936" cy="162.17" r="8.424"/>
	<circle style="fill:#FFDB6C;" cx="221.799" cy="162.17" r="8.424"/>
	<circle style="fill:#FFDB6C;" cx="255.661" cy="162.17" r="8.424"/>
	<circle style="fill:#FFDB6C;" cx="289.524" cy="162.17" r="8.424"/>
	<circle style="fill:#FFDB6C;" cx="323.386" cy="162.17" r="8.424"/>
</g>
<path d="M291.344,291.52h-71.585c-4.652,0-8.424,3.771-8.424,8.423c0,24.236,19.718,43.954,43.954,43.954h0.526
	c24.236,0,43.954-19.718,43.954-43.954C299.768,295.292,295.996,291.52,291.344,291.52z M255.814,327.051h-0.526
	c-12.007,0-22.216-7.847-25.767-18.683h52.06C278.03,319.203,267.82,327.051,255.814,327.051z"/>
<path d="M238.129,239.916c0-16.433-13.369-29.802-29.802-29.802s-29.802,13.369-29.802,29.802s13.369,29.802,29.802,29.802
	S238.129,256.348,238.129,239.916z M208.328,252.87c-7.143,0-12.955-5.811-12.955-12.955s5.811-12.955,12.955-12.955
	c7.144,0,12.955,5.811,12.955,12.955S215.471,252.87,208.328,252.87z"/>
<path d="M302.463,210.113c-16.434,0-29.802,13.369-29.802,29.802s13.369,29.802,29.802,29.802c16.434,0,29.802-13.369,29.802-29.802
	S318.897,210.113,302.463,210.113z M302.463,252.87c-7.143,0-12.955-5.811-12.955-12.955s5.812-12.955,12.955-12.955
	s12.955,5.811,12.955,12.955S309.607,252.87,302.463,252.87z"/>
<path d="M468.402,63.342c-1.065,0-2.111,0.074-3.141,0.202c-9.489-18.877-23.968-34.787-41.903-46.024
	C405.051,6.05,383.945,0.003,362.25,0.003c-0.331,0-0.666,0.001-0.996,0.004c-34.77,0.297-67.214,16.282-89.01,43.858
	c-2.884,3.65-2.265,8.947,1.385,11.832c3.65,2.885,8.945,2.265,11.831-1.385c18.617-23.553,46.294-37.207,75.936-37.46
	c0.292-0.002,0.577-0.003,0.867-0.003c36.995,0,70.219,20.186,87.292,52.975c-12.526-7.824-26.936-11.95-41.795-11.95
	c-20.893,0-39.498,8.404-52.39,23.666c-10.46,12.381-16.843,28.814-18.352,46.935h-72.934v-11.969
	c0-63.701-51.246-115.963-114.237-116.499c-22.066-0.23-43.518,5.868-62.104,17.513C69.679,28.838,55.117,44.893,45.631,63.949
	c-0.06,0.12-0.107,0.244-0.164,0.366c-0.617-0.045-1.237-0.076-1.864-0.076c-13.935,0-25.271,11.336-25.271,25.271
	s11.336,25.271,25.271,25.271s25.271-11.336,25.271-25.271c0-1.423-0.125-2.817-0.352-4.177c0.239-0.14,0.48-0.275,0.713-0.429
	c10.13-6.661,21.922-10.182,34.104-10.182c16.054,0,29.673,6.111,39.387,17.674c7.896,9.398,12.807,22.019,14.198,36.139
	c-10.099,0.605-18.137,8.99-18.137,19.238v28.793c0,6.471,3.212,12.195,8.115,15.698c-10.303,18.636-15.909,39.832-15.909,60.771
	c0,58.106,39.996,107.044,93.903,120.737c-7.439,7.686-12.031,18.144-12.031,29.66c0,10.334,3.693,19.821,9.826,27.214
	c-4.5,1.908-8.012,4.658-10.49,8.245c-3.649,5.281-3.861,10.508-4.049,15.121c-0.14,3.442-0.273,6.695-1.768,10.651
	c-1.567,4.146-4.235,7.975-7.935,11.382c-3.422,3.153-3.641,8.481-0.49,11.903c1.661,1.803,3.926,2.717,6.199,2.717
	c2.04,0,4.086-0.737,5.704-2.227c5.647-5.201,9.779-11.197,12.281-17.82c2.457-6.504,2.679-11.946,2.84-15.919
	c0.147-3.603,0.279-5.073,1.077-6.23c0.744-1.075,2.126-1.969,4.038-2.652v57.764c0,4.652,3.771,8.424,8.424,8.424
	s8.424-3.772,8.424-8.424v-58.333c2.78,0.572,5.658,0.872,8.604,0.872c2.924,0,5.777-0.297,8.537-0.859v58.321
	c0,4.652,3.77,8.424,8.424,8.424c4.653,0,8.424-3.772,8.424-8.424v-54.913c3.876,2.305,7.041,5.137,8.052,8.521
	c0.563,1.888,0.387,3.655-0.001,6.872c-0.476,3.946-1.068,8.855,0.165,15.473c1.526,8.193,5.288,15.917,11.181,22.957
	c1.666,1.99,4.056,3.017,6.464,3.017c1.907,0,3.825-0.645,5.402-1.964c3.568-2.986,4.04-8.299,1.053-11.866
	c-4.011-4.794-6.547-9.917-7.537-15.23c-0.76-4.079-0.392-7.135-0.001-10.37c0.473-3.925,1.009-8.374-0.583-13.708
	c-2.374-7.954-8.566-14.575-18.46-19.765c7.164-7.638,11.566-17.898,11.566-29.172c0-11.515-4.591-21.974-12.031-29.66
	c53.907-13.693,93.903-62.63,93.903-120.737c0-21.555-5.494-42.42-15.943-60.978c4.744-3.519,7.837-9.143,7.837-15.49v-28.793
	c0-10.223-7.997-18.591-18.059-19.235c1.403-14.099,6.347-26.714,14.298-36.126c9.777-11.574,23.442-17.69,39.521-17.69
	c12.183,0,23.976,3.521,34.104,10.182c0.467,0.308,0.948,0.58,1.433,0.834c-0.108,0.945-0.168,1.903-0.168,2.874
	c0,13.935,11.337,25.271,25.271,25.271s25.271-11.336,25.271-25.271S482.336,63.342,468.402,63.342z M43.602,97.932
	c-4.645,0-8.424-3.778-8.424-8.424s3.778-8.424,8.424-8.424s8.424,3.778,8.424,8.424S48.247,97.932,43.602,97.932z M103.339,57.875
	c-14.853,0-29.257,4.122-41.796,11.951c17.062-32.783,50.287-52.975,87.293-52.975c0.29,0,0.58,0.001,0.868,0.003
	c53.183,0.454,96.555,44.176,97.512,97.842c-0.128,0.584-0.2,1.189-0.2,1.812v11.969h-73.168
	c-1.497-18.129-7.836-34.554-18.222-46.917C142.61,66.065,124.529,57.875,103.339,57.875z M281.389,403.43
	c0,14.248-11.591,25.839-25.838,25.839c-14.248,0-25.839-11.591-25.839-25.839c0-14.248,11.591-25.839,25.839-25.839
	C269.798,377.592,281.389,389.183,281.389,403.43z M255.551,360.745c-59.392,0-107.711-48.318-107.711-107.711
	c0-19.833,5.82-39.963,16.449-57.17h182.561c10.747,17.118,16.411,36.788,16.411,57.17
	C363.262,312.425,314.943,360.745,255.551,360.745z M355.156,147.773v28.793c0,1.351-1.1,2.451-2.451,2.451h-1.213
	c-0.094-0.001-0.188-0.002-0.282,0H159.72c-0.009,0-0.017,0-0.026,0h-1.609c-1.351,0-2.451-1.1-2.451-2.451v-28.793
	c0-1.351,1.1-2.451,2.451-2.451h7.683h89.67h0.224h89.434h7.609C354.058,145.322,355.156,146.42,355.156,147.773z M468.402,97.036
	c-4.645,0-8.423-3.778-8.423-8.424s3.778-8.424,8.423-8.424c4.645,0,8.424,3.778,8.424,8.424S473.047,97.036,468.402,97.036z"/>
<circle cx="187.936" cy="162.17" r="8.424"/>
<circle cx="221.799" cy="162.17" r="8.424"/>
<circle cx="255.661" cy="162.17" r="8.424"/>
<circle cx="289.524" cy="162.17" r="8.424"/>
<circle cx="323.386" cy="162.17" r="8.424"/>
</svg>